<svg width="25" height="31" viewBox="0 0 25 31" fill="none" xmlns="http://www.w3.org/2000/svg">
<path d="M24.6924 0.591016L20.6513 0.00622214C20.5317 -0.0171696 20.4121 0.029611 20.3643 0.0763945L18.6426 2.27522C18.5231 2.41557 18.4992 2.6027 18.547 2.76645C18.5948 2.93019 18.4514 3.07054 18.284 3.04715L16.8731 2.74305C16.6579 2.69627 16.4188 2.76645 16.2753 2.95358L10.6799 9.97111C10.5843 10.1115 10.393 10.1582 10.2256 10.0881L8.09739 9.1524C7.90609 9.05883 7.69088 9.08222 7.5235 9.19918L6.44745 9.92432C6.28006 10.0413 6.04094 10.0647 5.84964 9.97111L5.32358 9.7138C4.98881 9.55006 4.5823 9.73719 4.48665 10.0881L4.10406 11.7489C4.00841 12.1465 4.17579 12.5442 4.53448 12.7547L5.34749 13.246L7.95391 14.8132L9.22126 15.5851C9.57994 15.7957 10.0343 15.7489 10.3451 15.4916L12.4733 13.667C12.6407 13.5267 12.9037 13.4799 13.095 13.5968L13.7407 13.9243C13.9559 14.0413 14.2189 13.9945 14.3863 13.8307L15.4623 12.8483C15.6297 12.6846 15.8928 12.6612 16.084 12.7547L17.6862 13.4799C17.9253 13.5968 18.2122 13.5267 18.3796 13.3161L19.1209 12.3805L24.7402 5.33954C25.0033 5.01205 24.8359 4.52083 24.4055 4.42726L23.162 4.14656C22.899 4.09977 22.7794 3.77229 22.9707 3.58516L24.9076 1.22259C25.0989 0.941888 24.9794 0.637799 24.6924 0.591016Z" fill="#E1E1E6"/>
<path d="M6.15835 14.7654C6.03878 14.6952 5.91922 14.8122 5.96705 14.9291L6.56485 16.473C6.61268 16.59 6.61267 16.7069 6.58876 16.8239L6.06269 18.8356C6.03878 18.9759 6.08661 19.1163 6.18226 19.1864L7.68872 20.3326C7.83219 20.4262 8.02349 20.4262 8.14305 20.3093L9.72125 18.9525C9.8169 18.8823 9.93646 18.8356 10.0321 18.8122L11.8255 18.625C11.9451 18.6017 11.9929 18.4379 11.8733 18.3677L6.15835 14.7654Z" fill="#E1E1E6"/>
<path d="M5.63239 19.9608C5.53674 19.8906 5.39327 19.8672 5.27371 19.914L4.00637 20.5222C3.93463 20.5456 3.8868 20.6158 3.83898 20.6859L1.13691 27.2122C1.13691 27.2356 1.13691 27.2356 1.13691 27.259C1.16082 27.2824 1.18473 27.3058 1.23256 27.3058L1.85427 27.0719C1.87818 27.0719 1.90209 27.0719 1.92601 27.0719C1.94992 27.0953 1.97383 27.1421 1.94992 27.1655L0.0130339 30.2766C-0.0347904 30.3467 0.0608604 30.4169 0.108685 30.3467L7.11495 23.4696C7.18668 23.3994 7.21059 23.3292 7.23451 23.2356L7.37798 21.4579C7.37798 21.3409 7.33015 21.2473 7.25842 21.1772L5.63239 19.9608Z" fill="#E1E1E6"/>
</svg>
